<?xml version="1.0" encoding="UTF-8" standalone="no"?>
<!DOCTYPE svg PUBLIC "-//W3C//DTD SVG 1.1//EN" "http://www.w3.org/Graphics/SVG/1.1/DTD/svg11.dtd">
<svg width="100%" height="100%" viewBox="0 0 23 30" version="1.1" xmlns="http://www.w3.org/2000/svg" xmlns:xlink="http://www.w3.org/1999/xlink" xml:space="preserve" xmlns:serif="http://www.serif.com/" style="fill-rule:evenodd;clip-rule:evenodd;stroke-linejoin:round;stroke-miterlimit:2;">
    <g transform="matrix(1,0,0,1,-9.2,-7)">
        <g>
            <g>
                <path d="M16,27.7C16,27.7 15.8,28.3 15.5,28.6C15.3,28.8 15.1,28.9 14.8,28.9C14.1,29.1 13.3,29.2 13.3,29.2C13.3,29.2 14,29.3 14.8,29.4C15.1,29.4 15.1,29.4 15.3,29.5C15.8,29.5 16,29.2 16,29.2L16,27.7Z" style="fill:rgb(233,101,75);fill-rule:nonzero;"/>
                <path d="M25.2,27.7C25.2,27.7 25.4,28.3 25.7,28.6C25.9,28.8 26.1,28.9 26.4,28.9C27.1,29.1 27.9,29.2 27.9,29.2C27.9,29.2 27.2,29.3 26.3,29.4C26,29.4 26,29.4 25.8,29.5C25.2,29.5 25.1,29.2 25.1,29.2L25.2,27.7Z" style="fill:rgb(233,101,75);fill-rule:nonzero;"/>
            </g>
            <g>
                <circle cx="20.7" cy="17.8" r="10.8" style="fill:rgb(182,207,234);"/>
                <circle cx="20.7" cy="17.8" r="10.4" style="fill:rgb(230,245,248);"/>
                <circle cx="20.7" cy="18" r="8.5" style="fill:rgb(208,232,240);"/>
                <g id="Body_1_">
                    <path d="M15.7,22C15.7,22 16.4,33.3 16.4,33.5C16.4,33.6 16.5,33.8 16,34C15.5,34.2 13.9,34.6 13.9,34.6L16.3,34.6C17.4,34.6 17.4,33.7 17.4,33.5C17.4,33.3 17.7,29 17.7,29C17.7,29 17.8,34.1 17.8,34.3C17.8,34.5 17.7,34.8 17,35C16.5,35.1 15,35.4 15,35.4L17.3,35.4C18.7,35.4 18.7,34.5 18.7,34.5L19,30C19,30 19.1,34.5 19.1,35C19.1,35.4 18.8,35.7 17.7,35.9C17,36.1 16.1,36.3 16.1,36.3L18.7,36.3C20,36.2 20.2,35.3 20.2,35.3L22.4,24.1L15.7,22Z" style="fill:rgb(238,121,75);fill-rule:nonzero;"/>
                    <path d="M25.7,22C25.7,22 25,33.3 25,33.5C25,33.6 24.9,33.8 25.4,34C25.9,34.2 27.5,34.6 27.5,34.6L25.1,34.6C24,34.6 24,33.7 24,33.5C24,33.3 23.7,29 23.7,29C23.7,29 23.6,34.1 23.6,34.3C23.6,34.5 23.7,34.8 24.4,35C24.9,35.1 26.4,35.4 26.4,35.4L24.1,35.4C22.7,35.4 22.7,34.5 22.7,34.5L22.4,30C22.4,30 22.3,34.5 22.3,35C22.3,35.4 22.6,35.7 23.7,35.9C24.4,36.1 25.3,36.3 25.3,36.3L22.7,36.3C21.4,36.2 21.2,35.3 21.2,35.3L19,24.1L25.7,22Z" style="fill:rgb(238,121,75);fill-rule:nonzero;"/>
                    <path d="M25.8,16.5C25.8,19.3 23.5,21.5 20.8,21.5C18.1,21.5 15.8,19.2 15.8,16.5C15.8,13.8 18.1,11.5 20.8,11.5C23.5,11.5 25.8,13.7 25.8,16.5Z" style="fill:rgb(238,121,75);fill-rule:nonzero;"/>
                    <clipPath id="_clip1">
                        <path d="M25.8,16.3L25.2,30L16.2,30L15.7,16.3"/>
                    </clipPath>
                    <g clip-path="url(#_clip1)">
                        <circle cx="20.8" cy="19.2" r="8.9" style="fill:rgb(238,121,75);"/>
                    </g>
                    <path d="M25.5,22C25.5,22 26.1,16.7 25.3,14.7C23.8,11.2 20.3,11.5 20.3,11.5C20.3,11.5 22.3,12.3 22.4,15.3C22.5,17.4 22.4,20.5 22.4,20.5L25.5,22Z" style="fill:rgb(227,78,59);fill-opacity:0.22;fill-rule:nonzero;"/>
                </g>
                <g id="Face_1_">
                    <circle cx="18.7" cy="13.8" r="0.7" style="fill:rgb(251,223,195);fill-opacity:0.5;"/>
                    <g>
                        <g>
                            <path d="M22.5,24C22.5,25.7 21.7,26.8 20.7,26.8C19.7,26.8 18.9,25.5 18.9,23.8C18.9,23.8 19.7,25.4 20.8,25.4C21.9,25.4 22.5,24 22.5,24Z" style="fill:rgb(1,1,1);fill-rule:nonzero;"/>
                            <path d="M22.5,24C22.5,25.1 21.7,25.7 20.7,25.7C19.7,25.7 19,24.9 19,23.9C19,23.9 19.8,24.9 20.9,24.9C22,24.9 22.5,24 22.5,24Z" style="fill:white;fill-rule:nonzero;"/>
                        </g>
                        <g>
                            <g>
                                <g>
                                    <circle cx="24.2" cy="19.3" r="3.1" style="fill:rgb(233,101,75);"/>
                                    <circle cx="17.2" cy="19.3" r="3.1" style="fill:rgb(233,101,75);"/>
                                </g>
                                <g>
                                    <circle cx="24.2" cy="19.3" r="2.4" style="fill:white;"/>
                                    <circle cx="17" cy="19.3" r="2.4" style="fill:white;"/>
                                </g>
                            </g>
                            <g>
                                <circle cx="17" cy="19" r="0.7" style="fill:rgb(1,1,1);"/>
                                <circle cx="24.2" cy="19" r="0.7" style="fill:rgb(1,1,1);"/>
                            </g>
                        </g>
                    </g>
                </g>
                <path d="M9.7,20.5C9.4,20.5 9.2,20.3 9.2,20L9.2,16C9.2,15.7 9.4,15.5 9.7,15.5C10,15.5 10.2,15.7 10.2,16L10.2,20C10.2,20.3 10,20.5 9.7,20.5Z" style="fill:rgb(182,207,234);fill-rule:nonzero;"/>
                <path d="M31.5,20.5C31.2,20.5 31,20.3 31,20L31,16C31,15.7 31.2,15.5 31.5,15.5C31.8,15.5 32,15.7 32,16L32,20C32,20.3 31.8,20.5 31.5,20.5Z" style="fill:rgb(182,207,234);fill-rule:nonzero;"/>
                <circle cx="17.3" cy="9.8" r="0.5" style="fill:white;"/>
                <path d="M13.7,23.3C13.6,23.3 13.5,23.3 13.4,23.2C12.2,21.7 11.6,19.8 11.6,17.9C11.6,16.3 12,14.8 12.8,13.4C13.6,12.1 14.7,11 16,10.2C16.2,10.1 16.4,10.2 16.5,10.3C16.6,10.5 16.5,10.7 16.4,10.8C13.9,12.2 12.3,14.9 12.3,17.8C12.3,19.6 12.9,21.3 14,22.7C14.1,22.8 14.1,23.1 13.9,23.2C13.8,23.3 13.8,23.3 13.7,23.3Z" style="fill:white;fill-rule:nonzero;"/>
                <path d="M25.2,28L25.2,27.2C23.8,28 22.3,28.8 20.5,28.8C18.5,28.8 17.2,27.9 15.9,27.2L16,28C16,28 17.5,29.6 20.6,29.6C23.5,29.5 25.2,28 25.2,28Z" style="fill:rgb(233,101,75);fill-opacity:0.25;fill-rule:nonzero;"/>
            </g>
        </g>
    </g>
</svg>
